<?xml version="1.0" encoding="UTF-8" standalone="no"?>
<!-- Created with Inkscape (http://www.inkscape.org/) -->

<svg
   width="112.7687"
   height="157.03354"
   viewBox="0 0 112.7687 157.03354"
   version="1.1"
   id="svg1"
   inkscape:version="1.4 (86a8ad7, 2024-10-11)"
   sodipodi:docname="favicon.svg"
   xmlns:inkscape="http://www.inkscape.org/namespaces/inkscape"
   xmlns:sodipodi="http://sodipodi.sourceforge.net/DTD/sodipodi-0.dtd"
   xmlns="http://www.w3.org/2000/svg"
   xmlns:svg="http://www.w3.org/2000/svg">
  <sodipodi:namedview
     id="namedview1"
     pagecolor="#ffffff"
     bordercolor="#000000"
     borderopacity="0.25"
     inkscape:showpageshadow="2"
     inkscape:pageopacity="0.0"
     inkscape:pagecheckerboard="0"
     inkscape:deskcolor="#d1d1d1"
     inkscape:document-units="px"
     inkscape:zoom="4"
     inkscape:cx="-47"
     inkscape:cy="94.875"
     inkscape:window-width="2560"
     inkscape:window-height="1377"
     inkscape:window-x="-8"
     inkscape:window-y="-8"
     inkscape:window-maximized="1"
     inkscape:current-layer="layer1"
     showguides="true">
    <sodipodi:guide
       position="56.384352,148.03354"
       orientation="1,0"
       id="guide3"
       inkscape:locked="false" />
  </sodipodi:namedview>
  <defs
     id="defs1">
    <inkscape:path-effect
       effect="powerstroke"
       message=""
       id="path-effect1"
       is_visible="true"
       lpeversion="1.3"
       scale_width="1"
       interpolator_type="CentripetalCatmullRom"
       interpolator_beta="0.20205479"
       start_linecap_type="zerowidth"
       end_linecap_type="zerowidth"
       offset_points="2.0484706,5.4881245 | 3.6156901,7.6367196 | 5.6163783,3.2903345"
       linejoin_type="bevel"
       miter_limit="13.5"
       not_jump="false"
       sort_points="true" />
    <inkscape:path-effect
       effect="powerstroke"
       message=""
       id="path-effect2"
       is_visible="true"
       lpeversion="1.3"
       scale_width="1"
       interpolator_type="CentripetalCatmullRom"
       interpolator_beta="1"
       start_linecap_type="zerowidth"
       end_linecap_type="round"
       offset_points="5.4507318,7.2983011 | 6.9022757,4.748773 | 8.9481523,5.9730064"
       linejoin_type="round"
       miter_limit="4"
       not_jump="false"
       sort_points="true" />
  </defs>
  <g
     inkscape:label="Layer 1"
     inkscape:groupmode="layer"
     id="layer1"
     transform="translate(-33.61565,-11.483231)">
    <rect
       style="fill:#f4a440;fill-opacity:1;stroke:#000000;stroke-width:10;stroke-linecap:round;stroke-linejoin:round;stroke-dasharray:none;stroke-opacity:1"
       id="rect1"
       width="102.7687"
       height="147.03354"
       x="38.61565"
       y="16.483231"
       ry="22.428291"
       rx="21.231445" />
    <path
       id="path1-8"
       style="fill:#340099;fill-opacity:1;fill-rule:nonzero;stroke:#ffffff;stroke-width:1.5;stroke-linecap:round;stroke-linejoin:round;stroke-dasharray:none;stroke-opacity:1"
       transform="matrix(-0.70710678,-0.70710678,-0.70710678,0.70710678,246.11643,114.16179)"
       d="m 151.58966,69.192314 c -0.96085,-0.369349 -2.34367,-0.729597 -4.0643,-0.59411 -1.2591,0.09915 -2.65914,0.463538 -4.0813,1.223055 -1.23263,0.658302 -2.45331,1.601039 -3.51964,2.842898 -0.9907,1.153776 -1.8456,2.565448 -2.40567,4.194025 -0.66819,2.208318 -0.80544,4.488538 -0.44395,6.728443 0.36169,2.241231 1.20937,4.359566 2.41061,6.246411 1.2476,1.959664 2.8591,3.644325 4.68008,4.98332 1.98712,1.461172 4.19131,2.489277 6.45078,3.072726 0.63285,0.151408 1.25811,0.270327 1.87386,0.359769 2.66048,0.386447 5.25239,0.25674 7.68656,-0.269328 3.13336,-0.677178 6.0065,-2.00975 8.49501,-3.76301 2.55804,-1.802245 4.76423,-4.085847 6.49766,-6.68747 1.74739,-2.622577 3.054,-5.628399 3.72996,-8.875085 0.84829,-4.245534 0.67504,-8.492255 -0.40247,-12.510072 -1.03982,-3.877242 -2.90995,-7.496474 -5.4457,-10.655449 -1.13554,-1.41462 -2.40745,-2.740461 -3.80152,-3.956082 -4.20895,-3.67018 -9.87244,-6.621222 -16.47474,-7.54348 -5.36488,-0.783422 -10.65361,-0.08068 -15.52001,1.664963 -4.74233,1.701138 -9.04645,4.376797 -12.66475,7.581313 -3.65299,3.235237 -6.64469,7.040948 -8.73711,11.040809 -2.18353,4.17403 -3.41061,8.602109 -3.38212,12.896529 0.0612,3.807898 0.57651,7.168156 0.97355,9.651608 0.51839,3.242515 0.85444,5.175858 0.964,7.400222 0.0583,1.182948 0.0337,2.246886 -0.0587,3.27327 -0.008,0.08427 -0.0156,0.16863 -0.0239,0.253092 -0.13082,1.318922 -0.35811,2.636709 -0.7297,4.024039 -1.12986,4.21839 -3.43711,8.23635 -5.27434,10.68544 2.24111,-1.68121 6.4765,-4.59103 9.52025,-8.46427 1.05358,-1.3407 1.97797,-2.80234 2.7083,-4.417307 0.0468,-0.103596 0.0928,-0.207682 0.13795,-0.312265 0.55021,-1.275496 1.0091,-2.674217 1.35786,-4.235362 0.62497,-2.797539 0.78523,-5.548779 0.88169,-8.810624 0.0784,-2.651978 0.11606,-5.510859 0.47205,-8.584647 0.30344,-2.179726 1.25001,-4.697116 2.97226,-7.31203 1.64753,-2.501465 3.907,-4.934506 6.61384,-6.978985 2.68383,-2.027097 5.65414,-3.556098 8.66067,-4.417692 3.06076,-0.877133 6.01563,-1.026009 8.75776,-0.481196 3.50219,0.73533 6.48752,2.47799 8.7105,4.513111 0.73016,0.668458 1.39039,1.377008 1.97709,2.111817 1.30907,1.639533 2.25297,3.409273 2.82204,5.207702 0.58322,1.843145 0.80504,3.812974 0.55832,5.875895 -0.13443,1.432404 -0.53032,2.879605 -1.17889,4.255852 -0.6429,1.364222 -1.52513,2.637859 -2.60507,3.714677 -1.04565,1.042625 -2.27835,1.901898 -3.65004,2.465417 -1.05938,0.435217 -2.24264,0.710898 -3.53438,0.729276 -0.30175,0.0043 -0.61556,-0.0044 -0.94102,-0.02906 -1.03994,-0.02245 -2.1916,-0.230487 -3.37412,-0.703151 -1.08331,-0.433009 -2.14811,-1.072186 -3.08637,-1.914353 -0.8978,-0.805854 -1.66505,-1.785315 -2.19883,-2.907317 -0.52955,-1.113119 -0.84179,-2.393111 -0.79787,-3.815613 -0.0481,-1.000178 0.11043,-2.031325 0.45313,-3.021704 0.3671,-1.060938 0.9294,-2.02997 1.61891,-2.847402 0.79353,-0.94075 1.72355,-1.645746 2.69727,-2.120126 1.34897,-0.657189 2.65651,-0.815761 3.71454,-0.768486 z"
       sodipodi:nodetypes="csssszc"
       inkscape:path-effect="#path-effect1"
       inkscape:original-d="m 151.58966,69.192314 c -5.37714,-1.122615 -10.27361,3.075428 -11.27738,8.211793 -1.42668,7.300428 4.28537,13.901396 11.27736,15.185667 9.73155,1.787467 18.47752,-5.843186 20.09622,-15.18564 2.21137,-12.763065 -7.81735,-24.173495 -20.09619,-26.186805 -16.49772,-2.70507 -33.08844,12.836364 -33.65426,26.186758 -0.56582,13.350394 4.54876,20.893716 -9.61359,35.056073" />
    <circle
       style="fill:#340099;fill-opacity:1;stroke:#ffffff;stroke-width:1.5;stroke-linecap:round;stroke-linejoin:round;stroke-dasharray:none;stroke-dashoffset:0;stroke-opacity:1"
       id="path2"
       cx="90"
       cy="137.45346"
       r="9.2340221" />
  </g>
</svg>
